PathFileType	4	(X/Y/Z)	C:\Users\86182\Documents\cortex\Trimmed_M1_L6.trc
DataRate	CameraRate	NumFrames	NumMarkers	Units	OrigDataRate	OrigDataStartFrame	OrigNumFrames
100.00	100.00	       98	2	mm	100.00	541	       901
Frame#	Time	gripper			box			
		X1	Y1	Z1	X2	Y2	Z2	

541	5.400	197.81746	194.37581	293.07437	200.26953	193.47258	157.55824	
542	5.410	197.81410	194.37769	293.07181	200.31650	193.47157	157.54030	
543	5.420	197.80946	194.37897	293.08322	200.32410	193.47314	157.53519	
544	5.430	197.82121	194.37529	293.07321	200.32907	193.47270	157.53372	
545	5.440	197.84740	194.36388	293.09296	200.28828	193.47227	157.55095	
546	5.450	197.81110	194.38086	293.06549	200.27965	193.47166	157.55525	
547	5.460	197.86644	194.36731	293.10007	200.33284	193.47350	157.53117	
548	5.470	197.84372	194.36365	293.09549	200.35521	193.47374	157.52171	
549	5.480	197.87523	194.35751	293.10886	200.28828	193.47227	157.55095	
550	5.490	197.86023	194.37125	293.10672	200.34225	193.47310	157.52783	
551	5.500	197.84381	194.36774	293.11496	200.37180	193.47516	157.51314	
552	5.510	197.83830	194.37425	293.07394	200.34132	193.47409	157.52696	
553	5.520	197.85107	194.36064	293.09683	200.35941	193.47403	157.51962	
554	5.530	197.84378	194.36510	293.09225	200.37155	193.47540	157.51291	
555	5.540	197.84688	194.36063	293.09555	200.34038	193.47507	157.52609	
556	5.550	197.87273	194.35187	293.10147	200.33778	193.47305	157.52971	
557	5.560	197.85078	194.35858	293.10846	200.30220	193.47217	157.54539	
558	5.570	197.86108	194.35916	293.09219	200.35941	193.47403	157.51962	
559	5.580	197.82973	194.36786	293.09860	200.33144	193.47499	157.52986	
560	5.590	197.82378	194.36972	293.08438	200.32834	193.47345	157.53308	
561	5.600	197.84273	194.36925	293.10535	200.31076	193.47276	157.54114	
562	5.610	197.83920	194.36925	293.07681	200.26201	193.47073	157.56367	
563	5.620	197.81886	194.38046	293.06128	200.33215	193.47424	157.53050	
564	5.630	197.82480	194.37408	293.07394	200.37549	193.47594	157.51062	
565	5.640	197.84241	194.36674	293.08124	200.32077	193.47186	157.53818	
566	5.650	197.82739	194.36958	293.08395	200.33688	193.47404	157.52884	
567	5.660	197.86597	194.35710	293.09601	200.32648	193.47543	157.53131	
568	5.670	197.83215	194.37233	293.07352	200.27142	193.47057	157.56001	
569	5.680	197.85448	194.36241	293.09418	200.33263	193.47374	157.53094	
570	5.690	197.85909	194.36324	293.08737	200.31839	193.47435	157.53600	
571	5.700	197.83131	194.37378	293.07587	200.32338	193.47389	157.53453	
572	5.710	197.87216	194.36867	293.06543	200.33897	193.47182	157.53079	
573	5.720	197.82803	194.37277	293.07663	200.38431	193.47603	157.50690	
574	5.730	197.84166	194.36652	293.08521	200.32858	193.47321	157.53329	
575	5.740	197.86494	194.37305	293.05597	200.35825	193.47527	157.51854	
576	5.750	197.85692	194.36954	293.06339	200.35846	193.47502	157.51875	
577	5.760	197.87978	194.36324	293.07025	200.38107	193.47475	157.50984	
578	5.770	197.83635	194.37309	293.06860	200.26662	193.47076	157.56172	
579	5.780	197.80994	194.37692	293.07669	200.30103	193.47340	157.54430	
580	5.790	197.82683	194.36763	293.08954	200.27507	193.47162	157.55719	
581	5.800	197.86636	194.36664	293.06497	200.36687	193.47560	157.51459	
582	5.810	197.83884	194.36795	293.08054	200.24374	193.47026	157.57173	
583	5.820	197.81985	194.37070	293.08624	200.28401	193.47197	157.55309	
584	5.830	197.84653	194.37494	293.08008	200.32008	193.47261	157.53752	
585	5.840	197.83861	194.36726	293.08240	200.25908	193.46892	157.56717	
586	5.850	197.86261	194.37149	293.05899	200.37201	193.47490	157.51335	
587	5.860	197.82779	194.37091	293.08023	200.38153	193.47426	157.51028	
588	5.870	197.82520	194.38182	293.06168	200.29216	193.47307	157.54836	
589	5.880	197.81714	194.39073	293.04489	200.34088	193.47458	157.52650	
590	5.890	197.82500	194.37999	293.06525	200.39311	193.47612	157.50319	
591	5.900	197.84804	194.37051	293.07568	200.34557	193.47438	157.52484	
592	5.910	197.84814	194.38112	293.04916	200.41063	193.47630	157.49579	
593	5.920	197.84921	194.37134	293.07422	200.39311	193.47612	157.50319	
594	5.930	197.81746	194.37581	293.07437	200.32834	193.47345	157.53308	
595	5.940	197.84526	194.37125	293.07721	200.39795	193.47568	157.50177	
596	5.950	197.83145	194.37326	293.07571	200.33688	193.47404	157.52884	
597	5.960	197.84619	194.36853	293.07660	200.35893	193.47452	157.51920	
598	5.970	197.80772	194.38271	293.06290	200.31174	193.47177	157.54201	
599	5.980	197.81499	194.36734	293.09848	200.36224	193.47580	157.51622	
600	5.990	197.83826	194.37190	293.07739	200.30699	193.47197	157.54369	
601	6.000	197.78436	194.38261	293.07919	200.29767	193.47212	157.54732	
602	6.010	197.83478	194.36847	293.09744	200.30220	193.47217	157.54539	
603	6.020	197.84793	194.37329	293.06149	200.25647	193.47168	157.56473	
604	6.030	197.80597	194.37677	293.07971	200.30124	193.47316	157.54453	
605	6.040	197.84261	194.37450	293.06894	200.32292	193.47440	157.53409	
606	6.050	197.87239	194.36263	293.07416	200.32149	193.47112	157.53883	
607	6.060	197.82942	194.37231	293.08591	200.34158	193.47385	157.52716	
608	6.070	197.87210	194.36562	293.07077	200.38873	193.47606	157.50504	
609	6.080	197.84927	194.37488	293.06903	200.33711	193.47380	157.52904	
610	6.090	197.83537	194.36978	293.07797	200.37993	193.47598	157.50876	
611	6.100	197.87939	194.35718	293.07233	200.41063	193.47630	157.49579	
612	6.110	197.82928	194.36253	293.10135	200.31128	193.47226	157.54156	
613	6.120	197.83290	194.36131	293.10208	200.27121	193.47083	157.55980	
614	6.130	197.89052	194.37277	293.05920	200.31412	193.47404	157.53813	
615	6.140	197.83740	194.37257	293.07990	200.36784	193.47461	157.51544	
616	6.150	197.83139	194.36971	293.08096	200.37621	193.47519	157.51128	
617	6.160	197.82892	194.37144	293.08203	200.38480	193.47552	157.50732	
618	6.170	197.85852	194.36090	293.09329	200.29718	193.47261	157.54689	
619	6.180	197.84929	194.36296	293.08640	200.36385	193.47408	157.51775	
620	6.190	197.83958	194.37416	293.06781	200.31102	193.47252	157.54135	
621	6.200	197.84241	194.36674	293.08124	200.32008	193.47261	157.53752	
622	6.210	197.82538	194.37607	293.06833	200.32031	193.47237	157.53773	
623	6.220	197.84201	194.36542	293.08496	200.31076	193.47276	157.54114	
624	6.230	197.82275	194.38057	293.05823	200.35165	193.47270	157.52449	
625	6.240	197.84180	194.36475	293.08682	200.38431	193.47603	157.50690	
626	6.250	197.81691	194.37386	293.07999	200.38919	193.47559	157.50548	
627	6.260	197.83667	194.36072	293.10095	200.37645	193.47496	157.51147	
628	6.270	197.83139	194.36971	293.08096	200.39406	193.47513	157.50404	
629	6.280	197.83073	194.37454	293.07635	200.35381	193.47522	157.52042	
630	6.290	197.86005	194.36652	293.07809	200.40234	193.47572	157.49991	
631	6.300	197.87386	194.36208	293.07471	200.37993	193.47598	157.50876	
632	6.310	197.84264	194.37567	293.06720	200.40625	193.47624	157.49765	
633	6.320	197.85054	194.37312	293.06006	200.37222	193.47466	157.51358	
634	6.330	197.81389	194.37701	293.07370	200.35870	193.47478	157.51897	
635	6.340	197.81015	194.37759	293.07483	200.34511	193.47487	157.52440	
636	6.350	197.83681	194.37035	293.08072	200.33778	193.47305	157.52971	
637	6.360	197.85802	194.36818	293.06940	200.34532	193.47462	157.52463	
638	6.370	197.82121	194.37529	293.07321	200.30243	193.47192	157.54561	
